<svg width="203" height="72" viewBox="0 0 203 72" fill="none" xmlns="http://www.w3.org/2000/svg">
<rect x="2.32617" y="23.3759" width="32" height="40" rx="3" stroke="white" stroke-width="4"/>
<path d="M11.3262 18.3759C11.3262 16.719 12.6693 15.3759 14.3262 15.3759H22.3262C23.983 15.3759 25.3262 16.719 25.3262 18.3759V23.3759H11.3262V18.3759Z" stroke="white" stroke-width="4"/>
<path d="M65.4262 53.4479C67.9462 53.4479 69.8302 51.6359 69.8302 49.1759C69.8302 46.7159 67.9462 44.9039 65.4262 44.9039C62.8822 44.9039 61.0102 46.7279 61.0102 49.1759C61.0102 51.6239 62.8822 53.4479 65.4262 53.4479ZM65.4262 52.6559C63.3982 52.6559 61.8862 51.1799 61.8862 49.1759C61.8862 47.1719 63.3982 45.6959 65.4262 45.6959C67.4422 45.6959 68.9422 47.1719 68.9422 49.1759C68.9422 51.1799 67.4422 52.6559 65.4262 52.6559ZM74.8052 47.2199C73.6172 47.2199 72.6692 47.8079 72.1652 48.7799C72.2492 46.7639 73.0652 45.8639 74.8532 45.4679L77.5172 44.8559L77.3732 44.0759L74.5412 44.7239C72.3932 45.2279 71.3492 46.5479 71.3492 49.2959C71.3492 51.8639 72.5252 53.4479 74.6492 53.4479C76.5332 53.4479 77.8292 52.1639 77.8292 50.3039C77.8292 48.4799 76.5812 47.2199 74.8052 47.2199ZM74.6732 52.7399C73.3292 52.7399 72.3692 51.7439 72.3692 50.3279C72.3692 48.9239 73.3172 47.9879 74.6732 47.9879C76.0292 47.9879 76.9652 48.9239 76.9652 50.3279C76.9652 51.7439 76.0172 52.7399 74.6732 52.7399ZM82.865 49.2719H81.053V47.0639H78.233V47.8199H80.201V53.3759H82.697C84.341 53.3759 85.253 52.6439 85.253 51.2879C85.253 50.0159 84.425 49.2719 82.865 49.2719ZM82.685 52.7159H81.053V49.9199H82.685C83.825 49.9199 84.389 50.3639 84.389 51.2879C84.389 52.2239 83.813 52.7159 82.685 52.7159ZM92.4061 50.2199C92.4061 48.3239 91.1221 47.0159 89.3461 47.0159C87.5701 47.0159 86.2621 48.3479 86.2621 50.2199C86.2621 52.0919 87.6061 53.4359 89.5741 53.4359C90.5701 53.4359 91.4461 53.0759 92.0101 52.4039L91.5301 51.8519C91.0501 52.4039 90.3661 52.6799 89.5981 52.6799C88.2181 52.6799 87.2101 51.8039 87.1141 50.4839H92.3941C92.3941 50.3879 92.4061 50.2919 92.4061 50.2199ZM89.3461 47.7479C90.5821 47.7479 91.4821 48.6119 91.5901 49.8479H87.1141C87.2221 48.6119 88.1221 47.7479 89.3461 47.7479ZM100.556 47.0639L97.8321 51.6119L95.1561 47.0639H94.2921V53.3759H95.0721V48.3719L97.6281 52.6079H98.0121L100.568 48.3839V53.3759H101.348V47.0639H100.556ZM111.377 47.0639H106.913V53.3759H107.765V47.8199H111.377V47.0639ZM115.86 47.0159C114.816 47.0159 113.94 47.4719 113.424 48.3119V47.0639H112.608V55.7039H113.46V52.1879C113.988 53.0039 114.852 53.4359 115.86 53.4359C117.66 53.4359 119.004 52.1399 119.004 50.2199C119.004 48.3119 117.66 47.0159 115.86 47.0159ZM115.8 52.6799C114.456 52.6799 113.448 51.6959 113.448 50.2199C113.448 48.7559 114.456 47.7599 115.8 47.7599C117.132 47.7599 118.152 48.7559 118.152 50.2199C118.152 51.6959 117.132 52.6799 115.8 52.6799ZM125.183 47.0639L122.807 52.4279L120.431 47.0639H119.543L122.363 53.3639L122.087 53.9759C121.727 54.7679 121.343 55.0319 120.779 55.0319C120.323 55.0319 119.939 54.8639 119.627 54.5519L119.231 55.1879C119.615 55.5719 120.179 55.7639 120.767 55.7639C121.667 55.7639 122.339 55.3679 122.867 54.1319L126.023 47.0639H125.183ZM130.259 50.0879C130.991 49.8479 131.483 49.3439 131.483 48.6839C131.483 47.6519 130.379 46.9919 128.939 46.9919C128.171 46.9919 127.379 47.1719 126.599 47.5799L126.839 48.2399C127.511 47.8919 128.207 47.7239 128.855 47.7239C129.863 47.7239 130.607 48.1079 130.607 48.8039C130.607 49.4279 129.959 49.7999 129.035 49.7999H128.003V50.4239H129.083C130.139 50.4239 130.787 50.8199 130.787 51.4919C130.787 52.2599 129.935 52.7159 128.795 52.7159C128.027 52.7159 127.211 52.4759 126.623 52.0319L126.335 52.6679C127.007 53.1839 127.931 53.4479 128.831 53.4479C130.403 53.4479 131.663 52.7039 131.663 51.5639C131.663 50.8199 131.147 50.2919 130.259 50.0879ZM136.201 53.4359C138.049 53.4359 139.405 52.0919 139.405 50.2199C139.405 48.3479 138.049 47.0159 136.201 47.0159C134.353 47.0159 132.985 48.3479 132.985 50.2199C132.985 52.0919 134.353 53.4359 136.201 53.4359ZM136.201 52.6799C134.857 52.6799 133.849 51.6959 133.849 50.2199C133.849 48.7439 134.857 47.7599 136.201 47.7599C137.545 47.7599 138.541 48.7439 138.541 50.2199C138.541 51.6959 137.545 52.6799 136.201 52.6799ZM145.246 50.1119C145.906 49.8719 146.314 49.3919 146.314 48.6839C146.314 47.6399 145.438 47.0639 144.01 47.0639H141.226V53.3759H144.094C145.738 53.3759 146.53 52.7519 146.53 51.6599C146.53 50.8319 146.122 50.3159 145.246 50.1119ZM142.054 47.7359H143.95C144.922 47.7359 145.462 48.0839 145.462 48.7919C145.462 49.4999 144.922 49.8719 143.95 49.8719H142.054V47.7359ZM144.058 52.7039H142.054V50.5079H144.142C145.21 50.5079 145.69 50.8559 145.69 51.6119C145.69 52.3679 145.126 52.7039 144.058 52.7039ZM151.13 53.4359C152.978 53.4359 154.334 52.0919 154.334 50.2199C154.334 48.3479 152.978 47.0159 151.13 47.0159C149.282 47.0159 147.914 48.3479 147.914 50.2199C147.914 52.0919 149.282 53.4359 151.13 53.4359ZM151.13 52.6799C149.786 52.6799 148.778 51.6959 148.778 50.2199C148.778 48.7439 149.786 47.7599 151.13 47.7599C152.474 47.7599 153.47 48.7439 153.47 50.2199C153.47 51.6959 152.474 52.6799 151.13 52.6799ZM160.619 47.0639H156.155V53.3759H157.007V47.8199H160.619V47.0639ZM164.162 53.4359C166.01 53.4359 167.366 52.0919 167.366 50.2199C167.366 48.3479 166.01 47.0159 164.162 47.0159C162.314 47.0159 160.946 48.3479 160.946 50.2199C160.946 52.0919 162.314 53.4359 164.162 53.4359ZM164.162 52.6799C162.818 52.6799 161.81 51.6959 161.81 50.2199C161.81 48.7439 162.818 47.7599 164.162 47.7599C165.506 47.7599 166.502 48.7439 166.502 50.2199C166.502 51.6959 165.506 52.6799 164.162 52.6799ZM61.5382 61.0639V67.3759H62.3902V61.8199H66.3502V67.3759H67.2022V61.0639H61.5382ZM72.8761 61.0159C71.8321 61.0159 70.9561 61.4719 70.4401 62.3119V61.0639H69.6241V69.7039H70.4761V66.1879C71.0041 67.0039 71.8681 67.4359 72.8761 67.4359C74.6761 67.4359 76.0201 66.1399 76.0201 64.2199C76.0201 62.3119 74.6761 61.0159 72.8761 61.0159ZM72.8161 66.6799C71.4721 66.6799 70.4641 65.6959 70.4641 64.2199C70.4641 62.7559 71.4721 61.7599 72.8161 61.7599C74.1481 61.7599 75.1681 62.7559 75.1681 64.2199C75.1681 65.6959 74.1481 66.6799 72.8161 66.6799ZM80.4547 67.4359C82.3027 67.4359 83.6587 66.0919 83.6587 64.2199C83.6587 62.3479 82.3027 61.0159 80.4547 61.0159C78.6067 61.0159 77.2387 62.3479 77.2387 64.2199C77.2387 66.0919 78.6067 67.4359 80.4547 67.4359ZM80.4547 66.6799C79.1107 66.6799 78.1027 65.6959 78.1027 64.2199C78.1027 62.7439 79.1107 61.7599 80.4547 61.7599C81.7987 61.7599 82.7947 62.7439 82.7947 64.2199C82.7947 65.6959 81.7987 66.6799 80.4547 66.6799ZM88.1196 67.4359C89.1876 67.4359 90.0876 67.0039 90.5916 66.1879L89.9556 65.7559C89.5236 66.3919 88.8516 66.6799 88.1196 66.6799C86.7396 66.6799 85.7316 65.7079 85.7316 64.2199C85.7316 62.7439 86.7396 61.7599 88.1196 61.7599C88.8516 61.7599 89.5236 62.0599 89.9556 62.6959L90.5916 62.2639C90.0876 61.4359 89.1876 61.0159 88.1196 61.0159C86.2356 61.0159 84.8676 62.3359 84.8676 64.2199C84.8676 66.1039 86.2356 67.4359 88.1196 67.4359ZM96.5641 61.0639H90.9361V61.8199H93.3241V67.3759H94.1761V61.8199H96.5641V61.0639ZM101.048 61.0159C100.004 61.0159 99.128 61.4719 98.612 62.3119V61.0639H97.796V69.7039H98.648V66.1879C99.176 67.0039 100.04 67.4359 101.048 67.4359C102.848 67.4359 104.192 66.1399 104.192 64.2199C104.192 62.3119 102.848 61.0159 101.048 61.0159ZM100.988 66.6799C99.644 66.6799 98.636 65.6959 98.636 64.2199C98.636 62.7559 99.644 61.7599 100.988 61.7599C102.32 61.7599 103.34 62.7559 103.34 64.2199C103.34 65.6959 102.32 66.6799 100.988 66.6799ZM108.159 61.0159C107.163 61.0159 106.227 61.3279 105.591 61.8679L105.975 62.5039C106.491 62.0479 107.259 61.7599 108.075 61.7599C109.251 61.7599 109.863 62.3479 109.863 63.4279V63.8119H107.859C106.047 63.8119 105.423 64.6279 105.423 65.5999C105.423 66.6919 106.299 67.4359 107.727 67.4359C108.771 67.4359 109.515 67.0399 109.899 66.3919V67.3759H110.715V63.4639C110.715 61.8319 109.791 61.0159 108.159 61.0159ZM107.859 66.7639C106.851 66.7639 106.263 66.3079 106.263 65.5759C106.263 64.9279 106.659 64.4479 107.883 64.4479H109.863V65.4799C109.527 66.3079 108.819 66.7639 107.859 66.7639ZM112.983 67.3759H113.835V64.5919H117.807V67.3759H118.659V61.0639H117.807V63.8599H113.835V61.0639H112.983V67.3759ZM123.721 67.4359C124.789 67.4359 125.689 67.0039 126.193 66.1879L125.557 65.7559C125.125 66.3919 124.453 66.6799 123.721 66.6799C122.341 66.6799 121.333 65.7079 121.333 64.2199C121.333 62.7439 122.341 61.7599 123.721 61.7599C124.453 61.7599 125.125 62.0599 125.557 62.6959L126.193 62.2639C125.689 61.4359 124.789 61.0159 123.721 61.0159C121.837 61.0159 120.469 62.3359 120.469 64.2199C120.469 66.1039 121.837 67.4359 123.721 67.4359ZM132.166 61.0639H126.538V61.8199H128.926V67.3759H129.778V61.8199H132.166V61.0639ZM137.418 64.1119C138.078 63.8719 138.486 63.3919 138.486 62.6839C138.486 61.6399 137.61 61.0639 136.182 61.0639H133.398V67.3759H136.266C137.91 67.3759 138.702 66.7519 138.702 65.6599C138.702 64.8319 138.294 64.3159 137.418 64.1119ZM134.226 61.7359H136.122C137.094 61.7359 137.634 62.0839 137.634 62.7919C137.634 63.4999 137.094 63.8719 136.122 63.8719H134.226V61.7359ZM136.23 66.7039H134.226V64.5079H136.314C137.382 64.5079 137.862 64.8559 137.862 65.6119C137.862 66.3679 137.298 66.7039 136.23 66.7039ZM142.87 61.0159C141.874 61.0159 140.938 61.3279 140.302 61.8679L140.686 62.5039C141.202 62.0479 141.97 61.7599 142.786 61.7599C143.962 61.7599 144.574 62.3479 144.574 63.4279V63.8119H142.57C140.758 63.8119 140.134 64.6279 140.134 65.5999C140.134 66.6919 141.01 67.4359 142.438 67.4359C143.482 67.4359 144.226 67.0399 144.61 66.3919V67.3759H145.426V63.4639C145.426 61.8319 144.502 61.0159 142.87 61.0159ZM142.57 66.7639C141.562 66.7639 140.974 66.3079 140.974 65.5759C140.974 64.9279 141.37 64.4479 142.594 64.4479H144.574V65.4799C144.238 66.3079 143.53 66.7639 142.57 66.7639Z" fill="white"/>
<path d="M77.7562 21.4959C79.7512 20.4109 80.8712 18.6609 80.8712 16.3509C80.8712 12.1509 77.1612 9.52585 71.7012 9.52585C66.2762 9.52585 62.6012 12.1509 62.6012 16.3509C62.6012 18.6609 63.6862 20.4109 65.6462 21.4959C63.1262 22.6509 61.7262 24.6459 61.7262 27.3409C61.7262 31.8909 65.6112 34.7259 71.7012 34.7259C77.7912 34.7259 81.7462 31.8909 81.7462 27.3409C81.7462 24.6459 80.3112 22.6509 77.7562 21.4959ZM71.7012 13.0959C74.5012 13.0959 76.3912 14.3559 76.3912 16.5609C76.3912 18.6609 74.6062 19.9909 71.7012 19.9909C68.8312 19.9909 67.0812 18.6609 67.0812 16.5609C67.0812 14.3559 68.9012 13.0959 71.7012 13.0959ZM71.7012 31.1559C68.3412 31.1559 66.3112 29.6859 66.3112 27.2009C66.3112 24.7859 68.3412 23.2809 71.7012 23.2809C75.0612 23.2809 77.1612 24.7859 77.1612 27.2009C77.1612 29.6859 75.0612 31.1559 71.7012 31.1559ZM92.9582 9.52585C87.9532 9.52585 83.9982 12.6059 83.9982 17.4709C83.9982 22.0559 87.6032 24.9959 92.4332 24.9959C95.1632 24.9959 97.5082 24.1559 98.9782 22.4409V22.4759C98.9782 28.0409 96.0732 30.9109 91.4532 30.9109C89.7382 30.9109 88.1282 30.5959 86.7982 29.7209L85.1182 33.1509C86.7632 34.2009 89.1082 34.7259 91.5582 34.7259C98.6632 34.7259 103.563 30.1059 103.563 21.7059C103.563 13.8309 99.6432 9.52585 92.9582 9.52585ZM93.3082 21.4259C90.3332 21.4259 88.4082 19.8159 88.4082 17.2609C88.4082 14.7059 90.3682 13.0959 93.2032 13.0959C96.4582 13.0959 98.2782 14.9159 98.2782 17.2259C98.2782 19.6409 96.2482 21.4259 93.3082 21.4259ZM128.482 24.9609H124.142V20.0259H119.872V24.9609H111.857L123.232 9.87585H118.367L106.292 25.6609V28.8109H119.732V34.3759H124.142V28.8109H128.482V24.9609Z" fill="white"/>
<path d="M142.046 23.6959L141.866 27.8159C141.746 30.0359 141.686 32.3159 140.046 32.3159C139.906 32.3159 139.746 32.2959 139.566 32.2559L139.446 34.3559C139.966 34.4959 140.426 34.5759 140.826 34.5759C143.346 34.5759 143.906 31.7359 144.086 27.9359L144.186 25.8159H148.186V34.3759H150.686V23.6959H142.046ZM154.053 34.3759H156.353L162.233 27.3359V34.3759H164.733V23.6959H162.453L156.553 30.7359V23.6959H154.053V34.3759ZM176.556 23.6959H166.556V25.8159H170.316V34.3759H172.816V25.8159H176.556V23.6959ZM184.289 23.5759C182.829 23.5759 181.589 24.0759 180.749 25.0959V23.6959H178.369V38.2559H180.869V33.0759C181.729 34.0559 182.929 34.5159 184.289 34.5159C187.409 34.5159 189.709 32.3559 189.709 29.0359C189.709 25.7359 187.409 23.5759 184.289 23.5759ZM184.009 32.3759C182.209 32.3759 180.829 31.0759 180.829 29.0359C180.829 26.9959 182.209 25.6959 184.009 25.6959C185.809 25.6959 187.169 26.9959 187.169 29.0359C187.169 31.0759 185.809 32.3759 184.009 32.3759ZM196.041 23.5759C194.321 23.5759 192.661 24.0159 191.521 24.8959L192.501 26.7159C193.301 26.0559 194.541 25.6559 195.741 25.6559C197.521 25.6559 198.401 26.5159 198.401 27.9759V28.1359H195.641C192.401 28.1359 191.201 29.5359 191.201 31.3159C191.201 33.1759 192.741 34.5159 195.181 34.5159C196.781 34.5159 197.941 33.9959 198.541 33.0759V34.3759H200.901V28.1159C200.901 25.0359 199.121 23.5759 196.041 23.5759ZM195.701 32.6959C194.421 32.6959 193.661 32.1159 193.661 31.2159C193.661 30.4359 194.121 29.7959 195.821 29.7959H198.401V31.0359C197.981 32.1359 196.921 32.6959 195.701 32.6959Z" fill="white"/>
</svg>
