<svg width="188" height="66" viewBox="0 0 188 66" fill="none" xmlns="http://www.w3.org/2000/svg">
<rect x="2.32617" y="14.3759" width="32" height="49" rx="3" stroke="white" stroke-width="4"/>
<circle cx="17.8262" cy="51.8759" r="4.5" fill="white"/>
<path d="M56.7422 53.3759H60.1742C62.2502 53.3759 63.4022 52.4879 63.4022 50.8679C63.4022 49.3079 62.3462 48.4799 60.3662 48.4799H57.6182V45.7319H62.8862V44.9759H56.7422V53.3759ZM57.6182 52.6679V49.1879H60.1622C61.7342 49.1879 62.5142 49.7399 62.5142 50.9039C62.5142 52.0679 61.7102 52.6679 60.1622 52.6679H57.6182ZM67.8609 53.4359C69.7089 53.4359 71.0649 52.0919 71.0649 50.2199C71.0649 48.3479 69.7089 47.0159 67.8609 47.0159C66.0129 47.0159 64.6449 48.3479 64.6449 50.2199C64.6449 52.0919 66.0129 53.4359 67.8609 53.4359ZM67.8609 52.6799C66.5169 52.6799 65.5089 51.6959 65.5089 50.2199C65.5089 48.7439 66.5169 47.7599 67.8609 47.7599C69.2049 47.7599 70.2009 48.7439 70.2009 50.2199C70.2009 51.6959 69.2049 52.6799 67.8609 52.6799ZM73.3907 47.0639L73.2827 49.3199C73.1987 50.9879 73.1027 52.6799 72.0587 52.6799C71.9747 52.6799 71.8667 52.6559 71.7587 52.6319L71.6987 53.3639C71.9267 53.4239 72.1187 53.4599 72.3107 53.4599C73.6667 53.4599 73.9427 51.5879 74.0507 49.3799L74.1347 47.8199H77.1587V53.3759H78.0107V47.0639H73.3907ZM83.1447 49.2959L81.2847 49.2719V47.0639H80.4327V53.3759L82.9767 53.3879C84.6567 53.4119 85.5687 52.6559 85.5687 51.3119C85.5687 50.0159 84.7287 49.3079 83.1447 49.2959ZM82.9287 52.7399L81.2847 52.7159V49.9079L82.9287 49.9319C84.1047 49.9439 84.7047 50.3759 84.7047 51.3119C84.7047 52.2599 84.0927 52.7519 82.9287 52.7399ZM95.0544 47.0639V52.6319H91.9944V47.0639H91.1424V52.6319H88.0464V47.0639H87.1944V53.3759H95.9064V47.0639H95.0544ZM100.943 53.4359C102.791 53.4359 104.147 52.0919 104.147 50.2199C104.147 48.3479 102.791 47.0159 100.943 47.0159C99.095 47.0159 97.727 48.3479 97.727 50.2199C97.727 52.0919 99.095 53.4359 100.943 53.4359ZM100.943 52.6799C99.599 52.6799 98.591 51.6959 98.591 50.2199C98.591 48.7439 99.599 47.7599 100.943 47.7599C102.287 47.7599 103.283 48.7439 103.283 50.2199C103.283 51.6959 102.287 52.6799 100.943 52.6799ZM108.836 46.1639C109.904 46.1639 110.612 45.6119 110.636 44.6039H110.024C110 45.2399 109.52 45.6359 108.836 45.6359C108.152 45.6359 107.672 45.2399 107.66 44.6039H107.048C107.072 45.6119 107.768 46.1639 108.836 46.1639ZM105.968 53.3759H106.736L110.936 48.3599V53.3759H111.788V47.0639H111.032L106.82 52.0799V47.0639H105.968V53.3759ZM122.542 52.6319V47.0639H117.886L117.802 49.1759C117.718 50.8799 117.562 52.5719 116.626 52.6319H116.266V54.8999H117.07V53.3759H122.722V54.8999H123.526V52.6319H122.542ZM118.582 49.2239L118.654 47.8199H121.69V52.6319H117.754C118.39 52.1519 118.522 50.6639 118.582 49.2239ZM125.187 53.3759H125.955L130.155 48.3599V53.3759H131.007V47.0639H130.251L126.039 52.0799V47.0639H125.187V53.3759ZM136.088 53.4359C137.156 53.4359 138.056 53.0039 138.56 52.1879L137.924 51.7559C137.492 52.3919 136.82 52.6799 136.088 52.6799C134.708 52.6799 133.7 51.7079 133.7 50.2199C133.7 48.7439 134.708 47.7599 136.088 47.7599C136.82 47.7599 137.492 48.0599 137.924 48.6959L138.56 48.2639C138.056 47.4359 137.156 47.0159 136.088 47.0159C134.204 47.0159 132.836 48.3359 132.836 50.2199C132.836 52.1039 134.204 53.4359 136.088 53.4359ZM140.21 47.0639V53.3759H141.062V47.8199H145.022V53.3759H145.874V47.0639H140.21ZM148.836 47.0639L148.728 49.3199C148.644 50.9879 148.548 52.6799 147.504 52.6799C147.42 52.6799 147.312 52.6559 147.204 52.6319L147.144 53.3639C147.372 53.4239 147.564 53.4599 147.756 53.4599C149.112 53.4599 149.388 51.5879 149.496 49.3799L149.58 47.8199H152.604V53.3759H153.456V47.0639H148.836ZM161.41 50.2199C161.41 48.3239 160.126 47.0159 158.35 47.0159C156.574 47.0159 155.266 48.3479 155.266 50.2199C155.266 52.0919 156.61 53.4359 158.578 53.4359C159.574 53.4359 160.45 53.0759 161.014 52.4039L160.534 51.8519C160.054 52.4039 159.37 52.6799 158.602 52.6799C157.222 52.6799 156.214 51.8039 156.118 50.4839H161.398C161.398 50.3879 161.41 50.2919 161.41 50.2199ZM158.35 47.7479C159.586 47.7479 160.486 48.6119 160.594 49.8479H156.118C156.226 48.6119 157.126 47.7479 158.35 47.7479ZM166.164 46.1639C167.232 46.1639 167.94 45.6119 167.964 44.6039H167.352C167.328 45.2399 166.848 45.6359 166.164 45.6359C165.48 45.6359 165 45.2399 164.988 44.6039H164.376C164.4 45.6119 165.096 46.1639 166.164 46.1639ZM163.296 53.3759H164.064L168.264 48.3599V53.3759H169.116V47.0639H168.36L164.148 52.0799V47.0639H163.296V53.3759Z" fill="white"/>
<path d="M55.6062 9.87585V13.6909H60.7862V34.3759H65.3362V9.87585H55.6062ZM69.6363 9.87585V17.8909H73.8713V13.7259H83.4963L74.2913 34.3759H79.1563L88.6763 12.9209V9.87585H69.6363Z" fill="white"/>
<path d="M111.826 32.2559V23.6959H103.026L102.886 27.3559C102.766 29.8559 102.506 32.1959 101.006 32.2559H100.506V36.7559H102.826V34.3759H111.066V36.7559H113.406V32.2559H111.826ZM105.166 27.5359L105.226 25.8159H109.326V32.2559H104.066C104.926 31.4359 105.086 29.5359 105.166 27.5359ZM125.399 23.5759C122.619 23.5759 120.479 25.2759 119.979 27.8359H118.139V23.6959H115.639V34.3759H118.139V30.0959H119.939C120.399 32.7359 122.559 34.5159 125.399 34.5159C128.619 34.5159 130.959 32.2359 130.959 29.0359C130.959 25.8159 128.619 23.5759 125.399 23.5759ZM125.399 32.3959C123.659 32.3959 122.339 31.0959 122.339 29.0359C122.339 26.9759 123.659 25.6959 125.399 25.6959C127.139 25.6959 128.479 26.9759 128.479 29.0359C128.479 31.0959 127.139 32.3959 125.399 32.3959ZM138.592 22.4359C140.732 22.4359 141.912 21.4359 141.952 19.4959H140.252C140.232 20.4559 139.592 21.0559 138.572 21.0559C137.532 21.0559 136.932 20.4559 136.912 19.4959H135.252C135.272 21.4359 136.452 22.4359 138.592 22.4359ZM133.412 34.3759H135.712L141.592 27.3359V34.3759H144.092V23.6959H141.812L135.912 30.7359V23.6959H133.412V34.3759ZM160.215 34.3759L160.195 23.6959H157.855L153.875 30.3759L150.075 23.6959H147.455V34.3759H149.735V27.2759L153.275 33.2559H154.355L157.955 27.2959V34.3759H160.215ZM168.329 34.5159C171.649 34.5159 174.029 32.2359 174.029 29.0359C174.029 25.8359 171.649 23.5759 168.329 23.5759C165.049 23.5759 162.649 25.8359 162.649 29.0359C162.649 32.2359 165.049 34.5159 168.329 34.5159ZM168.329 32.3759C166.529 32.3759 165.169 31.0759 165.169 29.0359C165.169 26.9959 166.529 25.6959 168.329 25.6959C170.149 25.6959 171.509 26.9959 171.509 29.0359C171.509 31.0759 170.149 32.3759 168.329 32.3759ZM184.238 28.8159C185.258 28.3759 185.878 27.5559 185.878 26.4559C185.878 24.6959 184.318 23.6959 181.718 23.6959H176.498V34.3759H181.938C184.818 34.3759 186.218 33.2559 186.218 31.3759C186.218 30.0759 185.558 29.2159 184.238 28.8159ZM178.878 25.5159H181.498C182.778 25.5159 183.438 25.9359 183.438 26.8159C183.438 27.6959 182.778 28.1559 181.498 28.1559H178.878V25.5159ZM181.738 32.5559H178.878V29.8159H181.818C183.178 29.8159 183.798 30.2759 183.798 31.2159C183.798 32.1359 183.078 32.5559 181.738 32.5559Z" fill="white"/>
</svg>
