<svg width="270" height="72" viewBox="0 0 270 72" fill="none" xmlns="http://www.w3.org/2000/svg">
<path d="M66.3062 19.3759H72.6062C76.1462 19.3759 78.1462 17.8159 78.1462 15.0359C78.1462 12.3959 76.3662 10.9559 73.0062 10.9559H68.8662V7.51585H77.2062V5.37585H66.3062V19.3759ZM68.8662 17.3759V12.9559H72.4662C74.5062 12.9559 75.5262 13.6559 75.5262 15.1159C75.5262 16.5959 74.4662 17.3759 72.4662 17.3759H68.8662ZM90.7132 14.0959C90.7132 10.7559 88.4332 8.57585 85.3132 8.57585C82.1332 8.57585 79.7932 10.8559 79.7932 14.0359C79.7932 17.2159 82.1132 19.5159 85.6932 19.5159C87.5332 19.5159 89.0332 18.9159 89.9932 17.7759L88.6532 16.2359C87.8932 17.0159 86.9532 17.3959 85.7532 17.3959C83.8932 17.3959 82.5932 16.3959 82.2932 14.8359H90.6732C90.6932 14.5959 90.7132 14.2959 90.7132 14.0959ZM85.3132 10.5759C86.9532 10.5759 88.1332 11.6359 88.3332 13.1759H82.2732C82.5132 11.6159 83.6932 10.5759 85.3132 10.5759ZM98.3076 19.5159C100.388 19.5159 102.048 18.6159 102.868 17.0159L100.948 15.8959C100.308 16.9159 99.3476 17.3759 98.2876 17.3759C96.4476 17.3759 95.0476 16.1159 95.0476 14.0359C95.0476 11.9759 96.4476 10.6959 98.2876 10.6959C99.3476 10.6959 100.308 11.1559 100.948 12.1759L102.868 11.0559C102.048 9.43585 100.388 8.57585 98.3076 8.57585C94.9276 8.57585 92.5276 10.8359 92.5276 14.0359C92.5276 17.2359 94.9276 19.5159 98.3076 19.5159ZM105.069 8.69585V19.3759H107.569V10.8159H112.829V19.3759H115.309V8.69585H105.069ZM124.602 8.57585C123.142 8.57585 121.902 9.07585 121.062 10.0959V8.69585H118.682V23.2559H121.182V18.0759C122.042 19.0559 123.242 19.5159 124.602 19.5159C127.722 19.5159 130.022 17.3559 130.022 14.0359C130.022 10.7359 127.722 8.57585 124.602 8.57585ZM124.322 17.3759C122.522 17.3759 121.142 16.0759 121.142 14.0359C121.142 11.9959 122.522 10.6959 124.322 10.6959C126.122 10.6959 127.482 11.9959 127.482 14.0359C127.482 16.0759 126.122 17.3759 124.322 17.3759ZM137.27 19.5159C140.59 19.5159 142.97 17.2359 142.97 14.0359C142.97 10.8359 140.59 8.57585 137.27 8.57585C133.99 8.57585 131.59 10.8359 131.59 14.0359C131.59 17.2359 133.99 19.5159 137.27 19.5159ZM137.27 17.3759C135.47 17.3759 134.11 16.0759 134.11 14.0359C134.11 11.9959 135.47 10.6959 137.27 10.6959C139.09 10.6959 140.45 11.9959 140.45 14.0359C140.45 16.0759 139.09 17.3759 137.27 17.3759ZM153.18 13.8159C154.2 13.3759 154.82 12.5559 154.82 11.4559C154.82 9.69585 153.26 8.69585 150.66 8.69585H145.44V19.3759H150.88C153.76 19.3759 155.16 18.2559 155.16 16.3759C155.16 15.0759 154.5 14.2159 153.18 13.8159ZM147.82 10.5159H150.44C151.72 10.5159 152.38 10.9359 152.38 11.8159C152.38 12.6959 151.72 13.1559 150.44 13.1559H147.82V10.5159ZM150.68 17.5559H147.82V14.8159H150.76C152.12 14.8159 152.74 15.2759 152.74 16.2159C152.74 17.1359 152.02 17.5559 150.68 17.5559ZM162.583 19.5159C165.903 19.5159 168.283 17.2359 168.283 14.0359C168.283 10.8359 165.903 8.57585 162.583 8.57585C159.303 8.57585 156.903 10.8359 156.903 14.0359C156.903 17.2359 159.303 19.5159 162.583 19.5159ZM162.583 17.3759C160.783 17.3759 159.423 16.0759 159.423 14.0359C159.423 11.9959 160.783 10.6959 162.583 10.6959C164.403 10.6959 165.763 11.9959 165.763 14.0359C165.763 16.0759 164.403 17.3759 162.583 17.3759ZM180.455 17.2559V8.69585H171.655L171.515 12.3559C171.395 14.8559 171.135 17.1959 169.635 17.2559H169.135V21.7559H171.455V19.3759H179.695V21.7559H182.035V17.2559H180.455ZM173.795 12.5359L173.855 10.8159H177.955V17.2559H172.695C173.555 16.4359 173.715 14.5359 173.795 12.5359ZM184.268 19.3759H186.768V15.1559H192.148V19.3759H194.648V8.69585H192.148V13.0359H186.768V8.69585H184.268V19.3759ZM202.758 19.5159C206.078 19.5159 208.458 17.2359 208.458 14.0359C208.458 10.8359 206.078 8.57585 202.758 8.57585C199.478 8.57585 197.078 10.8359 197.078 14.0359C197.078 17.2359 199.478 19.5159 202.758 19.5159ZM202.758 17.3759C200.958 17.3759 199.598 16.0759 199.598 14.0359C199.598 11.9959 200.958 10.6959 202.758 10.6959C204.578 10.6959 205.938 11.9959 205.938 14.0359C205.938 16.0759 204.578 17.3759 202.758 17.3759ZM220.928 14.0959C220.928 10.7559 218.648 8.57585 215.528 8.57585C212.348 8.57585 210.008 10.8559 210.008 14.0359C210.008 17.2159 212.328 19.5159 215.908 19.5159C217.748 19.5159 219.248 18.9159 220.208 17.7759L218.868 16.2359C218.108 17.0159 217.168 17.3959 215.968 17.3959C214.108 17.3959 212.808 16.3959 212.508 14.8359H220.888C220.908 14.5959 220.928 14.2959 220.928 14.0959ZM215.528 10.5759C217.168 10.5759 218.348 11.6359 218.548 13.1759H212.488C212.728 11.6159 213.908 10.5759 215.528 10.5759ZM70.7662 37.5159C74.0862 37.5159 76.4662 35.2359 76.4662 32.0359C76.4662 28.8359 74.0862 26.5759 70.7662 26.5759C67.4862 26.5759 65.0862 28.8359 65.0862 32.0359C65.0862 35.2359 67.4862 37.5159 70.7662 37.5159ZM70.7662 35.3759C68.9662 35.3759 67.6062 34.0759 67.6062 32.0359C67.6062 29.9959 68.9662 28.6959 70.7662 28.6959C72.5862 28.6959 73.9462 29.9959 73.9462 32.0359C73.9462 34.0759 72.5862 35.3759 70.7662 35.3759ZM84.7159 27.2159C83.0759 27.2159 81.6759 27.8759 80.7359 29.0159C80.9559 26.6959 82.1759 25.4959 84.7559 24.9559L89.2559 24.0359L88.8959 21.7959L83.9359 22.8559C80.1359 23.6559 78.3359 26.1559 78.3359 30.4359C78.3359 35.0959 80.4959 37.5759 84.1559 37.5759C87.5159 37.5759 89.8559 35.4759 89.8559 32.3359C89.8559 29.3159 87.7759 27.2159 84.7159 27.2159ZM84.2159 35.5559C82.3759 35.5559 81.0959 34.2559 81.0959 32.3959C81.0959 30.5359 82.3559 29.3359 84.2159 29.3359C86.0559 29.3359 87.2959 30.5359 87.2959 32.3959C87.2959 34.2359 86.0559 35.5559 84.2159 35.5559ZM92.2757 37.3759H94.7757V33.1559H100.156V37.3759H102.656V26.6959H100.156V31.0359H94.7757V26.6959H92.2757V37.3759ZM110.766 37.5159C114.086 37.5159 116.466 35.2359 116.466 32.0359C116.466 28.8359 114.086 26.5759 110.766 26.5759C107.486 26.5759 105.086 28.8359 105.086 32.0359C105.086 35.2359 107.486 37.5159 110.766 37.5159ZM110.766 35.3759C108.966 35.3759 107.606 34.0759 107.606 32.0359C107.606 29.9959 108.966 28.6959 110.766 28.6959C112.586 28.6959 113.946 29.9959 113.946 32.0359C113.946 34.0759 112.586 35.3759 110.766 35.3759ZM126.676 31.8159C127.696 31.3759 128.316 30.5559 128.316 29.4559C128.316 27.6959 126.756 26.6959 124.156 26.6959H118.936V37.3759H124.376C127.256 37.3759 128.656 36.2559 128.656 34.3759C128.656 33.0759 127.996 32.2159 126.676 31.8159ZM121.316 28.5159H123.936C125.216 28.5159 125.876 28.9359 125.876 29.8159C125.876 30.6959 125.216 31.1559 123.936 31.1559H121.316V28.5159ZM124.176 35.5559H121.316V32.8159H124.256C125.616 32.8159 126.236 33.2759 126.236 34.2159C126.236 35.1359 125.516 35.5559 124.176 35.5559ZM132.359 26.6959L132.179 30.8159C132.059 33.0359 131.999 35.3159 130.359 35.3159C130.219 35.3159 130.059 35.2959 129.879 35.2559L129.759 37.3559C130.279 37.4959 130.739 37.5759 131.139 37.5759C133.659 37.5759 134.219 34.7359 134.399 30.9359L134.499 28.8159H138.499V37.3759H140.999V26.6959H132.359ZM154.366 32.0959C154.366 28.7559 152.086 26.5759 148.966 26.5759C145.786 26.5759 143.446 28.8559 143.446 32.0359C143.446 35.2159 145.766 37.5159 149.346 37.5159C151.186 37.5159 152.686 36.9159 153.646 35.7759L152.306 34.2359C151.546 35.0159 150.606 35.3959 149.406 35.3959C147.546 35.3959 146.246 34.3959 145.946 32.8359H154.326C154.346 32.5959 154.366 32.2959 154.366 32.0959ZM148.966 28.5759C150.606 28.5759 151.786 29.6359 151.986 31.1759H145.926C146.166 29.6159 147.346 28.5759 148.966 28.5759ZM157.1 37.3759H159.6V33.1559H164.98V37.3759H167.48V26.6959H164.98V31.0359H159.6V26.6959H157.1V37.3759ZM170.83 37.3759H173.13L179.01 30.3359V37.3759H181.51V26.6959H179.23L173.33 33.7359V26.6959H170.83V37.3759ZM194.873 32.0959C194.873 28.7559 192.593 26.5759 189.473 26.5759C186.293 26.5759 183.953 28.8559 183.953 32.0359C183.953 35.2159 186.273 37.5159 189.853 37.5159C191.693 37.5159 193.193 36.9159 194.153 35.7759L192.813 34.2359C192.053 35.0159 191.113 35.3959 189.913 35.3959C188.053 35.3959 186.753 34.3959 186.453 32.8359H194.833C194.853 32.5959 194.873 32.2959 194.873 32.0959ZM189.473 28.5759C191.113 28.5759 192.293 29.6359 192.493 31.1759H186.433C186.673 29.6159 187.853 28.5759 189.473 28.5759ZM203.435 23.3759V37.3759H205.995V25.5759H213.255V37.3759H215.815V23.3759H203.435ZM226.243 37.5759C230.583 37.5759 233.783 34.5359 233.783 30.3759C233.783 26.2159 230.583 23.1759 226.243 23.1759C221.903 23.1759 218.703 26.2359 218.703 30.3759C218.703 34.5159 221.903 37.5759 226.243 37.5759ZM226.243 35.2959C223.423 35.2959 221.323 33.2359 221.323 30.3759C221.323 27.5159 223.423 25.4559 226.243 25.4559C229.063 25.4559 231.163 27.5159 231.163 30.3759C231.163 33.2359 229.063 35.2959 226.243 35.2959Z" fill="white"/>
<path d="M65.7422 44.9759V53.3759H66.6182V45.7439H71.9342V53.3759H72.8102V44.9759H65.7422ZM78.0445 53.4359C79.8925 53.4359 81.2485 52.0919 81.2485 50.2199C81.2485 48.3479 79.8925 47.0159 78.0445 47.0159C76.1965 47.0159 74.8285 48.3479 74.8285 50.2199C74.8285 52.0919 76.1965 53.4359 78.0445 53.4359ZM78.0445 52.6799C76.7005 52.6799 75.6925 51.6959 75.6925 50.2199C75.6925 48.7439 76.7005 47.7599 78.0445 47.7599C79.3885 47.7599 80.3845 48.7439 80.3845 50.2199C80.3845 51.6959 79.3885 52.6799 78.0445 52.6799ZM87.0894 50.1119C87.7494 49.8719 88.1574 49.3919 88.1574 48.6839C88.1574 47.6399 87.2814 47.0639 85.8534 47.0639H83.0694V53.3759H85.9374C87.5814 53.3759 88.3734 52.7519 88.3734 51.6599C88.3734 50.8319 87.9654 50.3159 87.0894 50.1119ZM83.8974 47.7359H85.7934C86.7654 47.7359 87.3054 48.0839 87.3054 48.7919C87.3054 49.4999 86.7654 49.8719 85.7934 49.8719H83.8974V47.7359ZM85.9014 52.7039H83.8974V50.5079H85.9854C87.0534 50.5079 87.5334 50.8559 87.5334 51.6119C87.5334 52.3679 86.9694 52.7039 85.9014 52.7039ZM93.0222 49.2959L91.2222 49.2719V47.0639H90.3702V53.3759L92.8662 53.3879C94.5342 53.4119 95.4582 52.6559 95.4582 51.3119C95.4582 50.0159 94.6062 49.3079 93.0222 49.2959ZM96.5142 53.3759H97.3662V47.0639H96.5142V53.3759ZM92.8182 52.7399L91.2222 52.7159V49.9079L92.8182 49.9319C93.9942 49.9439 94.5942 50.3759 94.5942 51.3119C94.5942 52.2599 93.9822 52.7519 92.8182 52.7399ZM107.652 47.0639V52.6319H104.592V47.0639H103.74V52.6319H100.644V47.0639H99.7921V53.3759H108.504V47.0639H107.652ZM116.469 50.2199C116.469 48.3239 115.185 47.0159 113.409 47.0159C111.633 47.0159 110.325 48.3479 110.325 50.2199C110.325 52.0919 111.669 53.4359 113.637 53.4359C114.633 53.4359 115.509 53.0759 116.073 52.4039L115.593 51.8519C115.113 52.4039 114.429 52.6799 113.661 52.6799C112.281 52.6799 111.273 51.8039 111.177 50.4839H116.457C116.457 50.3879 116.469 50.2919 116.469 50.2199ZM113.409 47.7479C114.645 47.7479 115.545 48.6119 115.653 49.8479H111.177C111.285 48.6119 112.185 47.7479 113.409 47.7479ZM118.355 53.3759H119.207V50.5919H123.179V53.3759H124.031V47.0639H123.179V49.8599H119.207V47.0639H118.355V53.3759ZM126.452 53.3759H127.304V50.5919H131.276V53.3759H132.128V47.0639H131.276V49.8599H127.304V47.0639H126.452V53.3759ZM136.722 47.0159C135.726 47.0159 134.79 47.3279 134.154 47.8679L134.538 48.5039C135.054 48.0479 135.822 47.7599 136.638 47.7599C137.814 47.7599 138.426 48.3479 138.426 49.4279V49.8119H136.422C134.61 49.8119 133.986 50.6279 133.986 51.5999C133.986 52.6919 134.862 53.4359 136.29 53.4359C137.334 53.4359 138.078 53.0399 138.462 52.3919V53.3759H139.278V49.4639C139.278 47.8319 138.354 47.0159 136.722 47.0159ZM136.422 52.7639C135.414 52.7639 134.826 52.3079 134.826 51.5759C134.826 50.9279 135.222 50.4479 136.446 50.4479H138.426V51.4799C138.09 52.3079 137.382 52.7639 136.422 52.7639ZM143.742 47.0639C142.11 47.0639 141.054 47.7839 141.054 49.2239C141.054 50.2439 141.606 50.9039 142.578 51.1679L141.006 53.3759H141.93L143.394 51.2879H143.634H145.614V53.3759H146.394V47.0639H143.742ZM141.918 49.2479C141.918 48.2399 142.59 47.8199 143.766 47.8199H145.614V50.6519H143.706C142.53 50.6519 141.918 50.2079 141.918 49.2479ZM73.1582 64.2079C73.1582 62.2639 71.7902 61.1239 69.4382 61.0159V58.4719H68.6102V61.0159C66.2582 61.1119 64.9142 62.2519 64.9142 64.2079C64.9142 66.1879 66.2702 67.3519 68.6102 67.4479V69.7039H69.4382V67.4359C71.7902 67.3399 73.1582 66.1879 73.1582 64.2079ZM65.7542 64.2079C65.7542 62.7439 66.7382 61.8679 68.6102 61.7719V66.6919C66.7382 66.5839 65.7542 65.7079 65.7542 64.2079ZM69.4382 66.6919V61.7719C71.3222 61.8679 72.3182 62.7319 72.3182 64.2079C72.3182 65.7199 71.3222 66.5959 69.4382 66.6919ZM79.3083 61.0639L76.9323 66.4279L74.5563 61.0639H73.6683L76.4883 67.3639L76.2123 67.9759C75.8523 68.7679 75.4683 69.0319 74.9043 69.0319C74.4483 69.0319 74.0643 68.8639 73.7523 68.5519L73.3563 69.1879C73.7403 69.5719 74.3043 69.7639 74.8923 69.7639C75.7923 69.7639 76.4643 69.3679 76.9923 68.1319L80.1483 61.0639H79.3083ZM81.4757 67.3759H82.3277V64.5919H86.2997V67.3759H87.1517V61.0639H86.2997V63.8599H82.3277V61.0639H81.4757V67.3759ZM94.1933 67.3759H95.2013L92.5373 64.1239L95.0213 61.0639H94.0973L91.8773 63.8359H90.4253V61.0639H89.5733V67.3759H90.4253V64.5679H91.8653L94.1933 67.3759ZM102.102 66.6319V61.0639H101.25V66.6319H97.398V61.0639H96.546V67.3759H102.318V68.9599H103.122V66.6319H102.102ZM104.749 67.3759H105.517L109.717 62.3599V67.3759H110.569V61.0639H109.813L105.601 66.0799V61.0639H104.749V67.3759ZM115.615 67.4359C117.463 67.4359 118.819 66.0919 118.819 64.2199C118.819 62.3479 117.463 61.0159 115.615 61.0159C113.767 61.0159 112.399 62.3479 112.399 64.2199C112.399 66.0919 113.767 67.4359 115.615 67.4359ZM115.615 66.6799C114.271 66.6799 113.263 65.6959 113.263 64.2199C113.263 62.7439 114.271 61.7599 115.615 61.7599C116.959 61.7599 117.955 62.7439 117.955 64.2199C117.955 65.6959 116.959 66.6799 115.615 66.6799ZM120.64 67.3759H121.492V64.5919H125.464V67.3759H126.316V61.0639H125.464V63.8599H121.492V61.0639H120.64V67.3759ZM130.909 61.0159C129.913 61.0159 128.977 61.3279 128.341 61.8679L128.725 62.5039C129.241 62.0479 130.009 61.7599 130.825 61.7599C132.001 61.7599 132.613 62.3479 132.613 63.4279V63.8119H130.609C128.797 63.8119 128.173 64.6279 128.173 65.5999C128.173 66.6919 129.049 67.4359 130.477 67.4359C131.521 67.4359 132.265 67.0399 132.649 66.3919V67.3759H133.465V63.4639C133.465 61.8319 132.541 61.0159 130.909 61.0159ZM130.609 66.7639C129.601 66.7639 129.013 66.3079 129.013 65.5759C129.013 64.9279 129.409 64.4479 130.633 64.4479H132.613V65.4799C132.277 66.3079 131.569 66.7639 130.609 66.7639ZM136.273 61.0639L136.165 63.3199C136.081 64.9879 135.985 66.6799 134.941 66.6799C134.857 66.6799 134.749 66.6559 134.641 66.6319L134.581 67.3639C134.809 67.4239 135.001 67.4599 135.193 67.4599C136.549 67.4599 136.825 65.5879 136.933 63.3799L137.017 61.8199H140.041V67.3759H140.893V61.0639H136.273ZM146.028 63.2959L144.168 63.2719V61.0639H143.316V67.3759L145.86 67.3879C147.54 67.4119 148.452 66.6559 148.452 65.3119C148.452 64.0159 147.612 63.3079 146.028 63.2959ZM145.812 66.7399L144.168 66.7159V63.9079L145.812 63.9319C146.988 63.9439 147.588 64.3759 147.588 65.3119C147.588 66.2599 146.976 66.7519 145.812 66.7399ZM150.077 67.3759H150.929V64.5919H154.901V67.3759H155.753V61.0639H154.901V63.8599H150.929V61.0639H150.077V67.3759ZM160.779 67.4359C162.627 67.4359 163.983 66.0919 163.983 64.2199C163.983 62.3479 162.627 61.0159 160.779 61.0159C158.931 61.0159 157.563 62.3479 157.563 64.2199C157.563 66.0919 158.931 67.4359 160.779 67.4359ZM160.779 66.6799C159.435 66.6799 158.427 65.6959 158.427 64.2199C158.427 62.7439 159.435 61.7599 160.779 61.7599C162.123 61.7599 163.119 62.7439 163.119 64.2199C163.119 65.6959 162.123 66.6799 160.779 66.6799ZM168.444 67.4359C169.512 67.4359 170.412 67.0039 170.916 66.1879L170.28 65.7559C169.848 66.3919 169.176 66.6799 168.444 66.6799C167.064 66.6799 166.056 65.7079 166.056 64.2199C166.056 62.7439 167.064 61.7599 168.444 61.7599C169.176 61.7599 169.848 62.0599 170.28 62.6959L170.916 62.2639C170.412 61.4359 169.512 61.0159 168.444 61.0159C166.56 61.0159 165.192 62.3359 165.192 64.2199C165.192 66.1039 166.56 67.4359 168.444 67.4359ZM176.888 61.0639H171.26V61.8199H173.648V67.3759H174.5V61.8199H176.888V61.0639ZM180.832 63.2959L178.972 63.2719V61.0639H178.12V67.3759L180.664 67.3879C182.344 67.4119 183.256 66.6559 183.256 65.3119C183.256 64.0159 182.416 63.3079 180.832 63.2959ZM180.616 66.7399L178.972 66.7159V63.9079L180.616 63.9319C181.792 63.9439 182.392 64.3759 182.392 65.3119C182.392 66.2599 181.78 66.7519 180.616 66.7399Z" fill="white"/>
<path d="M7.47967 32.9992C6.56244 33.9369 6.56244 35.4629 7.47967 36.4098C8.3969 37.3474 9.88964 37.3474 10.8159 36.4098C17.1645 29.9196 27.4968 29.9196 33.8455 36.4098C34.3041 36.8786 34.9066 37.1176 35.5091 37.1176C36.1116 37.1176 36.7141 36.8786 37.1727 36.4098C38.0899 35.4721 38.0899 33.9461 37.1727 32.9992C28.9896 24.6245 15.6628 24.6245 7.47967 32.9992Z" fill="white"/>
<path d="M13.8464 39.5078C12.9291 40.4455 12.9291 41.9715 13.8464 42.9184C14.7636 43.856 16.2563 43.856 17.1826 42.9184C20.0152 40.0134 24.6373 40.0134 27.4699 42.9184C27.9285 43.3872 28.531 43.6262 29.1335 43.6262C29.736 43.6262 30.3385 43.3872 30.7971 42.9184C31.7143 41.9807 31.7143 40.4547 30.7971 39.517C26.13 34.7275 18.5224 34.7275 13.8464 39.5078Z" fill="white"/>
<path d="M22.3261 51.3758C24.0594 51.3758 25.4645 49.9393 25.4645 48.1674C25.4645 46.3955 24.0594 44.9591 22.3261 44.9591C20.5928 44.9591 19.1877 46.3955 19.1877 48.1674C19.1877 49.9393 20.5928 51.3758 22.3261 51.3758Z" fill="white"/>
<path d="M43.6383 26.3803C31.8851 14.3744 12.7672 14.3744 1.01409 26.3803C0.0968647 27.318 0.0968647 28.844 1.01409 29.7909C1.93132 30.7286 3.42407 30.7286 4.35029 29.7909C14.26 19.6511 30.3924 19.6511 40.3111 29.7909C40.7697 30.2597 41.3722 30.4987 41.9747 30.4987C42.5771 30.4987 43.1796 30.2597 43.6383 29.7909C44.5555 28.8532 44.5555 27.3272 43.6383 26.3803Z" fill="white"/>
</svg>
